<?xml version="1.0" encoding="utf-8"?>
<!-- Generator: Adobe Illustrator 19.0.1, SVG Export Plug-In . SVG Version: 6.00 Build 0)  -->
<svg version="1.1" id="Слой_1" xmlns="http://www.w3.org/2000/svg" xmlns:xlink="http://www.w3.org/1999/xlink" x="0px" y="0px"
	 viewBox="0 0 50 50" style="enable-background:new 0 0 50 50;" xml:space="preserve">
<style type="text/css">
	.st0{fill:#FFFFFF;}
	.st1{fill:#58C1BF;}
	.st2{fill:#F7A81E;stroke:#0096AF;stroke-miterlimit:10;}
	.st3{fill:none;stroke:#F5218D;stroke-width:4;stroke-linecap:round;stroke-linejoin:round;}
	.st4{fill:none;stroke:#F5218D;stroke-width:4;stroke-linecap:round;stroke-linejoin:round;stroke-dasharray:4.9824,9.9648;}
	.st5{opacity:0.5;}
	.st6{fill:#598270;}
	.st7{opacity:0.4;}
	.st8{fill:#231F20;}
	.st9{fill:#E6E7E8;}
	.st10{fill:#EAEFF4;}
	.st11{fill:#D1D3D4;}
	.st12{opacity:0.2;fill:#939598;}
	.st13{fill:#58595B;}
	.st14{opacity:0.4;fill:#231F20;}
	.st15{fill:#654582;}
	.st16{fill:#939598;}
	.st17{opacity:0.3;fill:#939598;}
	.st18{fill:#ED4024;}
	.st19{fill:#AF4164;}
	.st20{fill:#EF6737;}
	.st21{fill:#EFDABA;}
	.st22{fill:#F9EDDB;}
	.st23{clip-path:url(#SVGID_2_);fill:#EFDABA;}
	.st24{opacity:0.8;fill:none;stroke:#1D1D1B;stroke-width:0.9123;stroke-miterlimit:10;}
	.st25{opacity:0.8;fill:none;stroke:#1D1D1B;stroke-width:0.9346;stroke-miterlimit:10;}
	.st26{opacity:0.3;fill:#231F20;}
	.st27{fill:#ED3824;}
	.st28{fill:#CC8C40;}
	.st29{fill:#67358E;}
	.st30{fill:url(#SVGID_3_);}
	.st31{opacity:0.5;fill:url(#SVGID_4_);}
	.st32{fill:url(#SVGID_5_);}
	.st33{opacity:0.5;fill:url(#SVGID_6_);}
	.st34{fill:url(#SVGID_7_);}
	.st35{opacity:0.5;fill:url(#SVGID_8_);}
	.st36{opacity:0.9;fill:#F1F1F1;}
	.st37{fill:url(#SVGID_11_);}
	.st38{fill:none;stroke:#58C1BF;stroke-width:1.8605;stroke-miterlimit:10;}
	.st39{fill:none;stroke:#266D7A;stroke-width:1.7861;stroke-miterlimit:10;}
	.st40{fill:none;stroke:#266D7A;stroke-width:1.786;stroke-miterlimit:10;}
	.st41{fill:#266D7A;}
	.st42{fill:#F5218D;}
	.st43{opacity:0.4;fill:#FAC83A;}
	.st44{opacity:0.9;fill:#58C1BF;}
	.st45{fill:none;stroke:#58C1BF;stroke-width:3;stroke-miterlimit:10;}
	.st46{fill:none;stroke:#F5218D;stroke-miterlimit:10;}
	.st47{fill:none;}
	.st48{opacity:0.8;fill:#58C1BF;}
	.st49{fill:#929292;}
	.st50{fill:url(#SVGID_18_);}
	.st51{fill:#A6A6A6;}
	.st52{fill:#2F2F2F;}
	.st53{fill:#3D3D3D;}
	.st54{fill:#545454;}
	.st55{fill:#595959;stroke:#898989;stroke-width:0.1161;stroke-miterlimit:10;}
	.st56{fill:#252527;}
	.st57{opacity:0.5;fill:url(#Highlight_4_);}
	.st58{fill:url(#SVGID_19_);}
	.st59{opacity:0.5;fill:url(#Highlight_5_);}
	.st60{fill:url(#SVGID_20_);}
	.st61{opacity:0.5;fill:url(#Highlight_6_);}
	.st62{fill:url(#SVGID_21_);}
	.st63{opacity:0.5;fill:url(#Highlight_7_);}
	.st64{display:none;}
	.st65{display:inline;}
	.st66{fill:none;stroke:#FFFFFF;stroke-width:1.6331;stroke-miterlimit:10;}
	.st67{fill:none;stroke:#5CBFBD;stroke-width:1.4993;stroke-miterlimit:10;}
	.st68{opacity:0.8;}
	.st69{fill:#F1F1F1;}
	.st70{fill:#E64884;}
	.st71{fill:none;stroke:#FFFFFF;stroke-width:0.7394;}
	.st72{fill:#654493;}
	.st73{fill:#512D83;}
	.st74{fill:#D1D1D1;}
	.st75{fill:#40B3E5;}
	.st76{fill:#0090C8;}
	.st77{fill:#D1D0D6;}
	.st78{fill:#B8B8BD;}
	.st79{fill:#56AF40;}
	.st80{fill:#50983B;}
	.st81{fill:#F5218D;stroke:#FFFFFF;stroke-width:6.6168;stroke-linecap:round;stroke-linejoin:round;stroke-miterlimit:10;}
	.st82{fill:none;stroke:#FFFFFF;stroke-miterlimit:10;}
	.st83{fill:#FFFFFF;stroke:#58C1BF;stroke-width:0.6885;stroke-miterlimit:10;}
	.st84{fill:none;stroke:#FFFFFF;stroke-linecap:round;stroke-linejoin:round;stroke-miterlimit:10;}
	.st85{fill:none;stroke:#FFFFFF;stroke-width:0.6298;stroke-miterlimit:10;}
	.st86{opacity:0.8;fill-rule:evenodd;clip-rule:evenodd;fill:#58C1BF;}
	.st87{fill-rule:evenodd;clip-rule:evenodd;fill:#FFFFFF;}
	.st88{fill:url(#SVGID_34_);}
	.st89{opacity:0.5;fill:url(#SVGID_35_);}
	.st90{fill:#FFD00D;}
	.st91{fill:#FFAF10;}
	.st92{fill:#EF9614;}
	.st93{fill:#EF8318;}
	.st94{fill:#DB722C;}
	.st95{fill:#3EB7FF;}
	.st96{fill:#FFC987;}
	.st97{fill:#FFAA39;}
	.st98{fill:#293D7C;}
	.st99{fill:#FFE2B8;}
	.st100{fill:#FF9F60;}
	.st101{fill:#B7092B;}
	.st102{fill:#FE3745;}
</style>
<g>
	<path class="st72" d="M46.2,25c0,11.7-9.5,21.2-21.2,21.2C13.3,46.2,3.8,36.7,3.8,25C3.8,13.3,13.3,3.8,25,3.8
		C36.7,3.8,46.2,13.3,46.2,25L46.2,25z M46.2,25"/>
	<path class="st73" d="M34.2,15.4c-5.2-1.2-10.3-2.7-15.6-0.9c-3.4,1.3-3.4,5-3.3,8.1c0,0.9-1,2-0.6,3c0.9,2.9,1.6,5.7,4.6,7.1
		c0.4,0.3,0,0.9,0.3,1.3c-0.1,0-0.4,0.1-0.4,0.3c0,0.7,0.3,1.7,0.1,2.4l9.1,9.1c9.4-1.5,16.7-9.1,17.7-18.6L34.2,15.4z M34.2,15.4"
		/>
	<path class="st0" d="M36.2,18.7L36.2,18.7c-0.6-2.3-3.1-4.8-5.5-5.3l0,0c-3.8-0.7-7.6-0.7-11.4,0l0,0c-2.3,0.5-4.9,3-5.5,5.3l0,0
		c-0.7,3.2-0.7,6.4,0,9.6l0,0c0.5,2.2,2.9,4.5,5.2,5.2v2.6c0,0.9,1.1,1.4,1.8,0.7l2.6-2.7c0.6,0,1.1,0,1.7,0c1.9,0,3.8-0.2,5.7-0.5
		l0,0c2.3-0.5,4.9-3,5.5-5.3l0,0C36.9,25.1,36.9,21.9,36.2,18.7L36.2,18.7z M34.2,27.9c-0.4,1.5-2.3,3.4-3.9,3.7
		c-2,0.4-4,0.5-6.1,0.5c0,0-0.1,0-0.1,0c-0.3,0.3-1.9,1.9-1.9,1.9l-2,2.1c-0.1,0.2-0.4,0-0.4-0.2v-4.2c0-0.1-0.1-0.1-0.1-0.1h0
		c-1.5-0.3-3.5-2.2-3.9-3.7c-0.6-2.9-0.6-5.8,0-8.7c0.4-1.5,2.3-3.4,3.9-3.7c3.5-0.7,7.1-0.7,10.6,0c1.5,0.3,3.5,2.2,3.9,3.7
		C34.8,22.1,34.8,25,34.2,27.9L34.2,27.9z M34.2,27.9"/>
	<path class="st0" d="M28.4,29.8c-0.2-0.1-0.5-0.1-0.7-0.2c-2.2-0.9-4.2-2.1-5.8-3.8c-0.9-1-1.6-2.2-2.2-3.4
		c-0.3-0.6-0.5-1.2-0.8-1.8c-0.2-0.5,0.1-1.1,0.4-1.5c0.3-0.4,0.7-0.7,1.2-0.9c0.4-0.2,0.7-0.1,1,0.2c0.6,0.6,1.1,1.3,1.5,2.1
		c0.3,0.5,0.2,1-0.3,1.3c-0.1,0.1-0.2,0.2-0.3,0.2c-0.1,0.1-0.2,0.2-0.2,0.3c-0.1,0.2-0.1,0.4,0,0.6c0.6,1.6,1.5,2.8,3.1,3.4
		c0.3,0.1,0.5,0.2,0.8,0.2c0.5-0.1,0.6-0.6,1-0.9c0.3-0.3,0.8-0.3,1.1,0c0.4,0.2,0.7,0.5,1,0.7c0.3,0.2,0.7,0.5,1,0.7
		c0.3,0.3,0.4,0.6,0.2,1c-0.3,0.7-0.8,1.2-1.4,1.5C28.8,29.7,28.6,29.8,28.4,29.8C28.1,29.8,28.6,29.8,28.4,29.8L28.4,29.8z
		 M28.4,29.8"/>
	<path class="st0" d="M25,17.5c2.8,0.1,5.2,2,5.7,4.8c0.1,0.5,0.1,1,0.2,1.5c0,0.2-0.1,0.4-0.3,0.4c-0.2,0-0.3-0.2-0.3-0.4
		c0-0.4,0-0.8-0.1-1.2c-0.3-2.1-2-3.9-4.1-4.2c-0.3-0.1-0.6-0.1-1-0.1c-0.2,0-0.5,0-0.5-0.3c0-0.2,0.1-0.4,0.3-0.4
		C24.9,17.5,25,17.5,25,17.5C27.8,17.6,25,17.5,25,17.5L25,17.5z M25,17.5"/>
	<path class="st0" d="M29.3,23.1c0,0,0,0.1,0,0.2c-0.1,0.3-0.5,0.3-0.6,0c0-0.1,0-0.2,0-0.3c0-0.6-0.1-1.2-0.4-1.7
		c-0.3-0.5-0.8-1-1.3-1.3c-0.3-0.2-0.7-0.3-1.1-0.3c-0.2,0-0.3,0-0.5-0.1c-0.2,0-0.3-0.2-0.3-0.3c0-0.2,0.1-0.3,0.3-0.3
		c0.7,0,1.3,0.2,1.9,0.5c1.2,0.6,1.9,1.6,2,2.9c0,0.1,0,0.1,0,0.2C29.3,22.8,29.3,22.9,29.3,23.1C29.3,23.1,29.3,22.9,29.3,23.1
		L29.3,23.1z M29.3,23.1"/>
	<path class="st0" d="M27.6,23c-0.2,0-0.4-0.1-0.4-0.3c0-0.2,0-0.3-0.1-0.5c-0.1-0.3-0.2-0.6-0.5-0.7c-0.1-0.1-0.2-0.1-0.4-0.2
		c-0.2-0.1-0.4,0-0.5-0.1c-0.2,0-0.3-0.2-0.3-0.4c0-0.2,0.2-0.3,0.4-0.3c1.1,0.1,1.9,0.6,2,1.9c0,0.1,0,0.2,0,0.3
		C27.8,22.9,27.7,23,27.6,23C27.3,23,27.7,23,27.6,23L27.6,23z M27.6,23"/>
	<path class="st74" d="M36.2,18.7L36.2,18.7c-0.3-1.3-1.3-2.6-2.4-3.7l-1.6,1.4c0.9,0.8,1.8,1.8,2,2.7c0.6,2.9,0.6,5.8,0,8.7
		c-0.4,1.5-2.3,3.4-3.9,3.7c-2,0.4-4,0.5-6.1,0.5c0,0-0.1,0-0.1,0c-0.3,0.3-1.9,1.9-1.9,1.9l-2,2.1c-0.1,0.2-0.4,0-0.4-0.2v-4.2
		c0-0.1,0-0.1-0.1-0.1h0c-0.9-0.2-1.9-0.9-2.7-1.7l-1.6,1.4c1,1.1,2.3,1.9,3.5,2.3v2.6c0,0.9,1.1,1.4,1.8,0.7l2.6-2.7
		c0.6,0,1.1,0,1.7,0c1.9,0,3.8-0.2,5.7-0.5l0,0c2.3-0.5,4.9-3,5.5-5.3l0,0C36.9,25.1,36.9,21.9,36.2,18.7L36.2,18.7z M36.2,18.7"/>
	<path class="st0" d="M28.4,29.8C28.6,29.8,28.1,29.8,28.4,29.8L28.4,29.8z M28.4,29.8"/>
	<path class="st74" d="M30.1,27.1c-0.3-0.3-0.6-0.5-1-0.7c-0.3-0.2-0.7-0.5-1-0.7c-0.4-0.2-0.8-0.2-1.1,0c-0.3,0.3-0.5,0.8-1,0.9
		c-0.3,0-0.5-0.1-0.8-0.2c-1-0.4-1.7-1-2.2-1.8l-1.2,1c0,0,0.1,0.1,0.1,0.1c1.6,1.8,3.6,2.9,5.8,3.8c0.2,0.1,0.4,0.1,0.7,0.2
		c-0.2-0.1,0.2-0.1,0,0c0.2-0.1,0.4-0.1,0.6-0.2c0.6-0.3,1.1-0.9,1.4-1.5C30.5,27.7,30.4,27.4,30.1,27.1L30.1,27.1z M30.1,27.1"/>
	<path class="st0" d="M25,17.5C25,17.5,25,17.5,25,17.5C25.2,17.5,27.7,17.6,25,17.5L25,17.5z M25,17.5"/>
	<path class="st74" d="M29.1,19.2l-0.5,0.4c0.8,0.8,1.3,1.8,1.5,2.9c0.1,0.4,0.1,0.8,0.1,1.2c0,0.2,0.1,0.4,0.3,0.4
		c0.2,0,0.3-0.2,0.3-0.4c0-0.5-0.1-1-0.2-1.5C30.5,21,29.9,20,29.1,19.2L29.1,19.2z M29.1,19.2"/>
	<path class="st74" d="M29.3,22.4c-0.1-1-0.5-1.7-1.2-2.3l-0.5,0.4c0.3,0.2,0.5,0.5,0.7,0.8c0.3,0.5,0.4,1.1,0.4,1.7
		c0,0.1,0,0.2,0,0.3c0.1,0.3,0.5,0.3,0.6,0c0-0.1,0-0.2,0-0.2c0,0,0-0.2,0,0c0-0.2,0-0.3,0-0.5C29.3,22.5,29.3,22.5,29.3,22.4
		L29.3,22.4z M29.3,22.4"/>
	<path class="st0" d="M29.3,23.1C29.3,22.9,29.3,23.1,29.3,23.1L29.3,23.1z M29.3,23.1"/>
	<path class="st0" d="M27.6,23C27.6,23,27.6,23,27.6,23C27.6,23,27.5,23,27.6,23C27.5,23,27.5,23,27.6,23L27.6,23z M27.6,23"/>
	<path class="st0" d="M27.6,23C27.5,23,27.5,23,27.6,23C27.5,23,27.4,23,27.6,23L27.6,23z M27.6,23"/>
	<path class="st0" d="M27.6,23C27.6,23,27.6,23,27.6,23C27.6,23,27.6,23,27.6,23L27.6,23z M27.6,23"/>
	<path class="st74" d="M27.1,21l-0.5,0.4c0,0,0.1,0,0.1,0.1c0.2,0.2,0.4,0.4,0.5,0.7c0,0.1,0,0.3,0.1,0.5c0,0.2,0.1,0.3,0.4,0.3
		c0,0,0,0,0,0c0.1,0,0.2-0.1,0.2-0.2c0-0.1,0-0.2,0-0.3C27.8,21.8,27.5,21.3,27.1,21L27.1,21z M27.1,21"/>
</g>
</svg>
