<?xml version="1.0" encoding="utf-8"?>
<!-- Generator: Adobe Illustrator 19.0.1, SVG Export Plug-In . SVG Version: 6.00 Build 0)  -->
<svg version="1.1" id="Слой_1" xmlns="http://www.w3.org/2000/svg" xmlns:xlink="http://www.w3.org/1999/xlink" x="0px" y="0px"
	 viewBox="0 0 50 50" style="enable-background:new 0 0 50 50;" xml:space="preserve">
<style type="text/css">
	.st0{fill:#FFFFFF;}
	.st1{fill:#58C1BF;}
	.st2{fill:#F7A81E;stroke:#0096AF;stroke-miterlimit:10;}
	.st3{fill:none;stroke:#F5218D;stroke-width:4;stroke-linecap:round;stroke-linejoin:round;}
	.st4{fill:none;stroke:#F5218D;stroke-width:4;stroke-linecap:round;stroke-linejoin:round;stroke-dasharray:4.9824,9.9648;}
	.st5{opacity:0.5;}
	.st6{fill:#598270;}
	.st7{opacity:0.4;}
	.st8{fill:#231F20;}
	.st9{fill:#E6E7E8;}
	.st10{fill:#EAEFF4;}
	.st11{fill:#D1D3D4;}
	.st12{opacity:0.2;fill:#939598;}
	.st13{fill:#58595B;}
	.st14{opacity:0.4;fill:#231F20;}
	.st15{fill:#654582;}
	.st16{fill:#939598;}
	.st17{opacity:0.3;fill:#939598;}
	.st18{fill:#ED4024;}
	.st19{fill:#AF4164;}
	.st20{fill:#EF6737;}
	.st21{fill:#EFDABA;}
	.st22{fill:#F9EDDB;}
	.st23{clip-path:url(#SVGID_2_);fill:#EFDABA;}
	.st24{opacity:0.8;fill:none;stroke:#1D1D1B;stroke-width:0.9123;stroke-miterlimit:10;}
	.st25{opacity:0.8;fill:none;stroke:#1D1D1B;stroke-width:0.9346;stroke-miterlimit:10;}
	.st26{opacity:0.3;fill:#231F20;}
	.st27{fill:#ED3824;}
	.st28{fill:#CC8C40;}
	.st29{fill:#67358E;}
	.st30{fill:url(#SVGID_3_);}
	.st31{opacity:0.5;fill:url(#SVGID_4_);}
	.st32{fill:url(#SVGID_5_);}
	.st33{opacity:0.5;fill:url(#SVGID_6_);}
	.st34{fill:url(#SVGID_7_);}
	.st35{opacity:0.5;fill:url(#SVGID_8_);}
	.st36{opacity:0.9;fill:#F1F1F1;}
	.st37{fill:url(#SVGID_11_);}
	.st38{fill:none;stroke:#58C1BF;stroke-width:1.8605;stroke-miterlimit:10;}
	.st39{fill:none;stroke:#266D7A;stroke-width:1.7861;stroke-miterlimit:10;}
	.st40{fill:none;stroke:#266D7A;stroke-width:1.786;stroke-miterlimit:10;}
	.st41{fill:#266D7A;}
	.st42{fill:#F5218D;}
	.st43{opacity:0.4;fill:#FAC83A;}
	.st44{opacity:0.9;fill:#58C1BF;}
	.st45{fill:none;stroke:#58C1BF;stroke-width:3;stroke-miterlimit:10;}
	.st46{fill:none;stroke:#F5218D;stroke-miterlimit:10;}
	.st47{fill:none;}
	.st48{opacity:0.8;fill:#58C1BF;}
	.st49{fill:#929292;}
	.st50{fill:url(#SVGID_18_);}
	.st51{fill:#A6A6A6;}
	.st52{fill:#2F2F2F;}
	.st53{fill:#3D3D3D;}
	.st54{fill:#545454;}
	.st55{fill:#595959;stroke:#898989;stroke-width:0.1161;stroke-miterlimit:10;}
	.st56{fill:#252527;}
	.st57{opacity:0.5;fill:url(#Highlight_4_);}
	.st58{fill:url(#SVGID_19_);}
	.st59{opacity:0.5;fill:url(#Highlight_5_);}
	.st60{fill:url(#SVGID_20_);}
	.st61{opacity:0.5;fill:url(#Highlight_6_);}
	.st62{fill:url(#SVGID_21_);}
	.st63{opacity:0.5;fill:url(#Highlight_7_);}
	.st64{display:none;}
	.st65{display:inline;}
	.st66{fill:none;stroke:#FFFFFF;stroke-width:1.6331;stroke-miterlimit:10;}
	.st67{fill:none;stroke:#5CBFBD;stroke-width:1.4993;stroke-miterlimit:10;}
	.st68{opacity:0.8;}
	.st69{fill:#F1F1F1;}
	.st70{fill:#E64884;}
	.st71{fill:none;stroke:#FFFFFF;stroke-width:0.7394;}
	.st72{fill:#654493;}
	.st73{fill:#512D83;}
	.st74{fill:#D1D1D1;}
	.st75{fill:#40B3E5;}
	.st76{fill:#0090C8;}
	.st77{fill:#D1D0D6;}
	.st78{fill:#B8B8BD;}
	.st79{fill:#56AF40;}
	.st80{fill:#50983B;}
	.st81{fill:#F5218D;stroke:#FFFFFF;stroke-width:6.6168;stroke-linecap:round;stroke-linejoin:round;stroke-miterlimit:10;}
	.st82{fill:none;stroke:#FFFFFF;stroke-miterlimit:10;}
	.st83{fill:#FFFFFF;stroke:#58C1BF;stroke-width:0.6885;stroke-miterlimit:10;}
	.st84{fill:none;stroke:#FFFFFF;stroke-linecap:round;stroke-linejoin:round;stroke-miterlimit:10;}
	.st85{fill:none;stroke:#FFFFFF;stroke-width:0.6298;stroke-miterlimit:10;}
	.st86{opacity:0.8;fill-rule:evenodd;clip-rule:evenodd;fill:#58C1BF;}
	.st87{fill-rule:evenodd;clip-rule:evenodd;fill:#FFFFFF;}
	.st88{fill:url(#SVGID_34_);}
	.st89{opacity:0.5;fill:url(#SVGID_35_);}
	.st90{fill:#FFD00D;}
	.st91{fill:#FFAF10;}
	.st92{fill:#EF9614;}
	.st93{fill:#EF8318;}
	.st94{fill:#DB722C;}
	.st95{fill:#3EB7FF;}
	.st96{fill:#FFC987;}
	.st97{fill:#FFAA39;}
	.st98{fill:#293D7C;}
	.st99{fill:#FFE2B8;}
	.st100{fill:#FF9F60;}
	.st101{fill:#B7092B;}
	.st102{fill:#FE3745;}
</style>
<g>
	<path class="st79" d="M46.2,25c0,11.7-9.5,21.2-21.2,21.2C13.3,46.2,3.8,36.7,3.8,25C3.8,13.3,13.3,3.8,25,3.8
		C36.7,3.8,46.2,13.3,46.2,25L46.2,25z M46.2,25"/>
	<g>
		<path class="st80" d="M34.2,15.4c-5.2-1.2-7.2-4.1-12.5-2.2c-3.4,1.3-6.6,6.4-6.4,9.5c0,0.9-1,2-0.6,3c0.9,2.9,2.3,2.4,2,7.6
			c0,0.5,0.2,0.2,0,0.9l11.7,11.7c9.4-1.5,16.7-9.1,17.7-18.6L34.2,15.4z M32.9,14.6"/>
		<g>
			<path class="st74" d="M14.1,35.5l1.7-5.9c-1.1-1.8-1.6-3.9-1.6-6c0-6.6,5.3-11.9,11.9-11.9S38,16.9,38,23.5
				c0,6.6-5.3,11.9-11.9,11.9c-2,0-4-0.5-5.8-1.5L14.1,35.5z M20.6,31.7l0.4,0.2c1.5,0.9,3.3,1.4,5.1,1.4c5.5,0,9.9-4.4,9.9-9.9
				c0-5.5-4.4-9.9-9.9-9.9s-9.9,4.4-9.9,9.9c0,1.9,0.5,3.7,1.6,5.3l0.2,0.4l-1,3.4L20.6,31.7z M20.6,31.7"/>
			<path class="st74" d="M22.7,18l-0.8,0c-0.2,0-0.5,0.1-0.7,0.2c-0.4,0.3-1,1-1.2,1.8c-0.3,1.2,0.1,2.7,1.2,4.2
				c1.1,1.5,3.1,3.9,6.8,4.9c1.2,0.3,2.1,0.1,2.8-0.3c0.6-0.4,0.9-0.9,1.1-1.6l0.1-0.6c0-0.2-0.1-0.4-0.2-0.4l-2.6-1.2
				c-0.2-0.1-0.4,0-0.5,0.1l-1,1.3c-0.1,0.1-0.2,0.1-0.3,0.1c-0.7-0.2-3.1-1.2-4.3-3.7c-0.1-0.1,0-0.2,0-0.3l1-1.1
				c0.1-0.1,0.1-0.3,0.1-0.4l-1.1-2.6C23,18.1,22.9,18,22.7,18L22.7,18z M22.7,18"/>
		</g>
		<g>
			<path class="st0" d="M17.2,27.9c-0.7-1.4-1.1-2.9-1.1-4.4c0-5.5,4.4-9.9,9.9-9.9c2,0,3.9,0.6,5.5,1.7l1.5-1.4
				c-2-1.5-4.4-2.3-7.1-2.3c-6.6,0-11.9,5.3-11.9,11.9c0,2,0.5,4,1.5,5.8L17.2,27.9z"/>
			<path class="st0" d="M21.4,24.2l1.7-1.5c0,0,0,0,0,0c-0.1-0.1,0-0.2,0-0.3l1-1.1c0.1-0.1,0.1-0.3,0.1-0.4l-1.1-2.6
				C23,18.1,22.9,18,22.7,18l-0.8,0c-0.2,0-0.5,0.1-0.7,0.2c-0.4,0.3-1,1-1.2,1.8C19.8,21.1,20.3,22.6,21.4,24.2
				C21.4,24.2,21.4,24.2,21.4,24.2z"/>
		</g>
	</g>
</g>
</svg>
