<?xml version="1.0" encoding="utf-8"?>
<!-- Generator: Adobe Illustrator 19.0.1, SVG Export Plug-In . SVG Version: 6.00 Build 0)  -->
<svg version="1.1" id="Слой_1" xmlns="http://www.w3.org/2000/svg" xmlns:xlink="http://www.w3.org/1999/xlink" x="0px" y="0px"
	 viewBox="0 0 50 50" style="enable-background:new 0 0 50 50;" xml:space="preserve">
<style type="text/css">
	.st0{fill:#FFFFFF;}
	.st1{fill:#58C1BF;}
	.st2{fill:#F7A81E;stroke:#0096AF;stroke-miterlimit:10;}
	.st3{fill:none;stroke:#F5218D;stroke-width:4;stroke-linecap:round;stroke-linejoin:round;}
	.st4{fill:none;stroke:#F5218D;stroke-width:4;stroke-linecap:round;stroke-linejoin:round;stroke-dasharray:4.9824,9.9648;}
	.st5{opacity:0.5;}
	.st6{fill:#598270;}
	.st7{opacity:0.4;}
	.st8{fill:#231F20;}
	.st9{fill:#E6E7E8;}
	.st10{fill:#EAEFF4;}
	.st11{fill:#D1D3D4;}
	.st12{opacity:0.2;fill:#939598;}
	.st13{fill:#58595B;}
	.st14{opacity:0.4;fill:#231F20;}
	.st15{fill:#654582;}
	.st16{fill:#939598;}
	.st17{opacity:0.3;fill:#939598;}
	.st18{fill:#ED4024;}
	.st19{fill:#AF4164;}
	.st20{fill:#EF6737;}
	.st21{fill:#EFDABA;}
	.st22{fill:#F9EDDB;}
	.st23{clip-path:url(#SVGID_2_);fill:#EFDABA;}
	.st24{opacity:0.8;fill:none;stroke:#1D1D1B;stroke-width:0.9123;stroke-miterlimit:10;}
	.st25{opacity:0.8;fill:none;stroke:#1D1D1B;stroke-width:0.9346;stroke-miterlimit:10;}
	.st26{opacity:0.3;fill:#231F20;}
	.st27{fill:#ED3824;}
	.st28{fill:#CC8C40;}
	.st29{fill:#67358E;}
	.st30{fill:url(#SVGID_3_);}
	.st31{opacity:0.5;fill:url(#SVGID_4_);}
	.st32{fill:url(#SVGID_5_);}
	.st33{opacity:0.5;fill:url(#SVGID_6_);}
	.st34{fill:url(#SVGID_7_);}
	.st35{opacity:0.5;fill:url(#SVGID_8_);}
	.st36{opacity:0.9;fill:#F1F1F1;}
	.st37{fill:url(#SVGID_11_);}
	.st38{fill:none;stroke:#58C1BF;stroke-width:1.8605;stroke-miterlimit:10;}
	.st39{fill:none;stroke:#266D7A;stroke-width:1.7861;stroke-miterlimit:10;}
	.st40{fill:none;stroke:#266D7A;stroke-width:1.786;stroke-miterlimit:10;}
	.st41{fill:#266D7A;}
	.st42{fill:#F5218D;}
	.st43{opacity:0.4;fill:#FAC83A;}
	.st44{opacity:0.9;fill:#58C1BF;}
	.st45{fill:none;stroke:#58C1BF;stroke-width:3;stroke-miterlimit:10;}
	.st46{fill:none;stroke:#F5218D;stroke-miterlimit:10;}
	.st47{fill:none;}
	.st48{opacity:0.8;fill:#58C1BF;}
	.st49{fill:#929292;}
	.st50{fill:url(#SVGID_18_);}
	.st51{fill:#A6A6A6;}
	.st52{fill:#2F2F2F;}
	.st53{fill:#3D3D3D;}
	.st54{fill:#545454;}
	.st55{fill:#595959;stroke:#898989;stroke-width:0.1161;stroke-miterlimit:10;}
	.st56{fill:#252527;}
	.st57{opacity:0.5;fill:url(#Highlight_4_);}
	.st58{fill:url(#SVGID_19_);}
	.st59{opacity:0.5;fill:url(#Highlight_5_);}
	.st60{fill:url(#SVGID_20_);}
	.st61{opacity:0.5;fill:url(#Highlight_6_);}
	.st62{fill:url(#SVGID_21_);}
	.st63{opacity:0.5;fill:url(#Highlight_7_);}
	.st64{display:none;}
	.st65{display:inline;}
	.st66{fill:none;stroke:#FFFFFF;stroke-width:1.6331;stroke-miterlimit:10;}
	.st67{fill:none;stroke:#5CBFBD;stroke-width:1.4993;stroke-miterlimit:10;}
	.st68{opacity:0.8;}
	.st69{fill:#F1F1F1;}
	.st70{fill:#E64884;}
	.st71{fill:none;stroke:#FFFFFF;stroke-width:0.7394;}
	.st72{fill:#654493;}
	.st73{fill:#512D83;}
	.st74{fill:#D1D1D1;}
	.st75{fill:#40B3E5;}
	.st76{fill:#0090C8;}
	.st77{fill:#D1D0D6;}
	.st78{fill:#B8B8BD;}
	.st79{fill:#56AF40;}
	.st80{fill:#50983B;}
	.st81{fill:#F5218D;stroke:#FFFFFF;stroke-width:6.6168;stroke-linecap:round;stroke-linejoin:round;stroke-miterlimit:10;}
	.st82{fill:none;stroke:#FFFFFF;stroke-miterlimit:10;}
	.st83{fill:#FFFFFF;stroke:#58C1BF;stroke-width:0.6885;stroke-miterlimit:10;}
	.st84{fill:none;stroke:#FFFFFF;stroke-linecap:round;stroke-linejoin:round;stroke-miterlimit:10;}
	.st85{fill:none;stroke:#FFFFFF;stroke-width:0.6298;stroke-miterlimit:10;}
	.st86{opacity:0.8;fill-rule:evenodd;clip-rule:evenodd;fill:#58C1BF;}
	.st87{fill-rule:evenodd;clip-rule:evenodd;fill:#FFFFFF;}
</style>
<g>
	<path class="st0" d="M25,30c2.8,0,5-2.2,5-5c0-1.1-0.4-2.1-0.9-2.9C28.1,20.8,26.7,20,25,20c-1.7,0-3.1,0.8-4.1,2.1
		C20.3,22.9,20,23.9,20,25C20,27.8,22.2,30,25,30L25,30z M25,30"/>
	<path class="st0" d="M35.9,18.9v-4.8h-0.6l-4.2,0l0,4.8L35.9,18.9z M35.9,18.9"/>
	<path class="st0" d="M25,0C11.2,0,0,11.2,0,25c0,13.8,11.2,25,25,25c13.8,0,25-11.2,25-25C50,11.2,38.8,0,25,0L25,0z M39.2,22.1
		v11.6c0,3-2.5,5.5-5.5,5.5H16.3c-3,0-5.5-2.5-5.5-5.5V16.3c0-3,2.5-5.5,5.5-5.5h17.4c3,0,5.5,2.5,5.5,5.5V22.1z M39.2,22.1"/>
	<path class="st0" d="M32.8,25c0,4.3-3.5,7.8-7.8,7.8c-4.3,0-7.8-3.5-7.8-7.8c0-1,0.2-2,0.6-2.9h-4.2v11.6c0,1.5,1.2,2.7,2.7,2.7
		h17.4c1.5,0,2.7-1.2,2.7-2.7V22.1h-4.2C32.6,23,32.8,24,32.8,25L32.8,25z M32.8,25"/>
</g>
</svg>
