<?xml version="1.0" encoding="utf-8"?>
<!-- Generator: Adobe Illustrator 19.0.1, SVG Export Plug-In . SVG Version: 6.00 Build 0)  -->
<svg version="1.1" id="Слой_1" xmlns="http://www.w3.org/2000/svg" xmlns:xlink="http://www.w3.org/1999/xlink" x="0px" y="0px"
	 viewBox="0 0 50 50" style="enable-background:new 0 0 50 50;" xml:space="preserve">
<style type="text/css">
	.st0{fill:#FFFFFF;}
	.st1{fill:#58C1BF;}
	.st2{fill:#F7A81E;stroke:#0096AF;stroke-miterlimit:10;}
	.st3{fill:none;stroke:#F5218D;stroke-width:4;stroke-linecap:round;stroke-linejoin:round;}
	.st4{fill:none;stroke:#F5218D;stroke-width:4;stroke-linecap:round;stroke-linejoin:round;stroke-dasharray:4.9824,9.9648;}
	.st5{opacity:0.5;}
	.st6{fill:#598270;}
	.st7{opacity:0.4;}
	.st8{fill:#231F20;}
	.st9{fill:#E6E7E8;}
	.st10{fill:#EAEFF4;}
	.st11{fill:#D1D3D4;}
	.st12{opacity:0.2;fill:#939598;}
	.st13{fill:#58595B;}
	.st14{opacity:0.4;fill:#231F20;}
	.st15{fill:#654582;}
	.st16{fill:#939598;}
	.st17{opacity:0.3;fill:#939598;}
	.st18{fill:#ED4024;}
	.st19{fill:#AF4164;}
	.st20{fill:#EF6737;}
	.st21{fill:#EFDABA;}
	.st22{fill:#F9EDDB;}
	.st23{clip-path:url(#SVGID_2_);fill:#EFDABA;}
	.st24{opacity:0.8;fill:none;stroke:#1D1D1B;stroke-width:0.9123;stroke-miterlimit:10;}
	.st25{opacity:0.8;fill:none;stroke:#1D1D1B;stroke-width:0.9346;stroke-miterlimit:10;}
	.st26{opacity:0.3;fill:#231F20;}
	.st27{fill:#ED3824;}
	.st28{fill:#CC8C40;}
	.st29{fill:#67358E;}
	.st30{fill:url(#SVGID_3_);}
	.st31{opacity:0.5;fill:url(#SVGID_4_);}
	.st32{fill:url(#SVGID_5_);}
	.st33{opacity:0.5;fill:url(#SVGID_6_);}
	.st34{fill:url(#SVGID_7_);}
	.st35{opacity:0.5;fill:url(#SVGID_8_);}
	.st36{opacity:0.9;fill:#F1F1F1;}
	.st37{fill:url(#SVGID_11_);}
	.st38{fill:none;stroke:#58C1BF;stroke-width:1.8605;stroke-miterlimit:10;}
	.st39{fill:none;stroke:#266D7A;stroke-width:1.7861;stroke-miterlimit:10;}
	.st40{fill:none;stroke:#266D7A;stroke-width:1.786;stroke-miterlimit:10;}
	.st41{fill:#266D7A;}
	.st42{fill:#F5218D;}
	.st43{opacity:0.4;fill:#FAC83A;}
	.st44{opacity:0.9;fill:#58C1BF;}
	.st45{fill:none;stroke:#58C1BF;stroke-width:3;stroke-miterlimit:10;}
	.st46{fill:none;stroke:#F5218D;stroke-miterlimit:10;}
	.st47{fill:none;}
	.st48{opacity:0.8;fill:#58C1BF;}
	.st49{fill:#929292;}
	.st50{fill:url(#SVGID_18_);}
	.st51{fill:#A6A6A6;}
	.st52{fill:#2F2F2F;}
	.st53{fill:#3D3D3D;}
	.st54{fill:#545454;}
	.st55{fill:#595959;stroke:#898989;stroke-width:0.1161;stroke-miterlimit:10;}
	.st56{fill:#252527;}
	.st57{opacity:0.5;fill:url(#Highlight_4_);}
	.st58{fill:url(#SVGID_19_);}
	.st59{opacity:0.5;fill:url(#Highlight_5_);}
	.st60{fill:url(#SVGID_20_);}
	.st61{opacity:0.5;fill:url(#Highlight_6_);}
	.st62{fill:url(#SVGID_21_);}
	.st63{opacity:0.5;fill:url(#Highlight_7_);}
	.st64{display:none;}
	.st65{display:inline;}
	.st66{fill:none;stroke:#FFFFFF;stroke-width:1.6331;stroke-miterlimit:10;}
	.st67{fill:none;stroke:#5CBFBD;stroke-width:1.4993;stroke-miterlimit:10;}
	.st68{opacity:0.8;}
	.st69{fill:#F1F1F1;}
	.st70{fill:#E64884;}
	.st71{fill:none;stroke:#FFFFFF;stroke-width:0.7394;}
	.st72{fill:#654493;}
	.st73{fill:#512D83;}
	.st74{fill:#D1D1D1;}
	.st75{fill:#40B3E5;}
	.st76{fill:#0090C8;}
	.st77{fill:#D1D0D6;}
	.st78{fill:#B8B8BD;}
	.st79{fill:#56AF40;}
	.st80{fill:#50983B;}
	.st81{fill:#F5218D;stroke:#FFFFFF;stroke-width:6.6168;stroke-linecap:round;stroke-linejoin:round;stroke-miterlimit:10;}
	.st82{fill:none;stroke:#FFFFFF;stroke-miterlimit:10;}
	.st83{fill:#FFFFFF;stroke:#58C1BF;stroke-width:0.6885;stroke-miterlimit:10;}
	.st84{fill:none;stroke:#FFFFFF;stroke-linecap:round;stroke-linejoin:round;stroke-miterlimit:10;}
	.st85{fill:none;stroke:#FFFFFF;stroke-width:0.6298;stroke-miterlimit:10;}
	.st86{opacity:0.8;fill-rule:evenodd;clip-rule:evenodd;fill:#58C1BF;}
	.st87{fill-rule:evenodd;clip-rule:evenodd;fill:#FFFFFF;}
</style>
<path class="st0" d="M25,0C11.2,0,0,11.2,0,25c0,13.2,10.3,24.1,23.3,24.9c0.6,0,0.9,0.1,1.5,0.1c-0.6,0-1.8,0-1.8-0.1V32.5h-6v-6h6
	V25c0-1.5,0.2-2.9,0.2-4.4c0-0.9,0.2-1.9,0.3-2.8c0.4-2.2,1.5-4.1,3.3-5.4c1.6-1.2,3.5-1.6,5.4-1.7c1.3,0,2,0,3.3,0.1
	c0.7,0,1.5,0.1,1.5,0.2v6.4h0.6c-1.2,0-2.5,0-3.7,0c-1.7,0.1-3,1.2-3,3.3c0,1.6-0.1,5.6-0.1,5.6s4,0,5.8,0h1.4c-0.3,3-0.6,3-0.9,6
	h-6v16.8C43,46.6,50,36.8,50,25C50,11.2,38.7,0,25,0z"/>
</svg>
