<?xml version="1.0" encoding="utf-8"?>
<!-- Generator: Adobe Illustrator 19.0.1, SVG Export Plug-In . SVG Version: 6.00 Build 0)  -->
<svg version="1.1" id="Слой_1" xmlns="http://www.w3.org/2000/svg" xmlns:xlink="http://www.w3.org/1999/xlink" x="0px" y="0px"
	 viewBox="23 0 285 60" style="enable-background:new 23 0 285 60;" xml:space="preserve">
<style type="text/css">
	.st0{fill:#266D7A;}
	.st1{fill:#58C1BF;}
	.st2{enable-background:new    ;}
	.st3{fill:#F9F51E;}
</style>
<path class="st0" d="M301,58.8H30c-2.8,0-5-2.3-5-5V10.2c0-2.7,2.3-5,5-5h271c2.8,0,5,2.3,5,5v43.6C306,56.6,303.8,58.8,301,58.8z"
	/>
<path class="st1" d="M301,54.8H30c-2.8,0-5-2.3-5-5V6.2c0-2.8,2.3-5,5-5h271c2.8,0,5,2.3,5,5v43.6C306,52.6,303.8,54.8,301,54.8z"/>
<g>
	<g class="st2">
		<path class="st3" d="M37.7,16.2h4l2.2,8.7l1.2,6l0.9-5.9l1.8-8.8h4l-4.3,19c-0.2,1-0.4,1.8-0.7,2.5c-0.2,0.7-0.6,1.3-1,1.9
			c-0.4,0.6-0.9,1-1.4,1.4c-0.6,0.3-1.2,0.6-2,0.7c-0.8,0.1-1.7,0.2-2.8,0.1v-3.6c1.1,0.1,1.9,0,2.5-0.3c0.6-0.3,0.9-0.9,1.1-1.7
			l0-0.2L37.7,16.2z"/>
		<path class="st3" d="M53.5,35.6v-2.8h4v3.1c0,1.7,0.7,2.5,2.1,2.5c0.7,0,1.2-0.2,1.6-0.6c0.3-0.4,0.5-1.2,0.5-2.2v-2
			c0-1.2-0.2-2-0.6-2.5c-0.4-0.5-1.1-0.7-2-0.7h-1v-3.6h1.2c0.8,0,1.4-0.2,1.8-0.6c0.4-0.4,0.6-1.1,0.6-2.1v-1.4
			c0-1.1-0.2-1.9-0.5-2.3s-0.9-0.6-1.6-0.6c-1.4,0-2.1,0.8-2.1,2.5v2.1h-3.9v-1.9c0-2.1,0.5-3.6,1.6-4.7c1.1-1.1,2.6-1.6,4.5-1.6
			s3.4,0.6,4.5,1.7s1.5,2.7,1.5,4.7V23c0,2.7-0.9,4.5-2.8,5.2c1.9,0.8,2.8,2.6,2.8,5.4v2c0,2.1-0.5,3.6-1.5,4.7S61.7,42,59.7,42
			s-3.5-0.6-4.5-1.7S53.5,37.7,53.5,35.6z"/>
		<path class="st3" d="M68.2,41.7V16.2h4v10.9h4.6V16.2h4v25.5h-4V30.8h-4.6v10.9H68.2z"/>
		<path class="st3" d="M82.7,41.7l4.1-25.5h6.2L97,41.7h-4l-0.7-4.6h-4.9l-0.7,4.6H82.7z M87.9,33.6h3.9l-1.9-12.8L87.9,33.6z"/>
		<path class="st3" d="M97.4,19.9v-3.6h12.4v3.6h-4.2v21.9h-4V19.9H97.4z"/>
		<path class="st3" d="M111.5,41.7V16.2h4v9.6h1.9c2,0,3.5,0.5,4.5,1.6c1,1.1,1.5,2.6,1.5,4.7v3.3c0,2.1-0.5,3.6-1.5,4.7
			c-1,1.1-2.5,1.6-4.5,1.6H111.5z M115.5,38.1h1.9c0.7,0,1.2-0.2,1.5-0.5c0.3-0.4,0.5-1,0.5-1.9v-3.8c0-0.9-0.2-1.5-0.5-1.9
			c-0.3-0.4-0.8-0.5-1.5-0.5h-1.9V38.1z"/>
		<path class="st3" d="M131.4,41.7V16.2H144v25.5h-4V19.9h-4.6v21.9H131.4z"/>
		<path class="st3" d="M146.7,35.6V22.4c0-2,0.5-3.6,1.6-4.7c1.1-1.1,2.6-1.7,4.5-1.7s3.5,0.6,4.5,1.7c1,1.1,1.6,2.7,1.6,4.7v13.3
			c0,2-0.5,3.6-1.6,4.7c-1,1.1-2.5,1.7-4.5,1.7s-3.5-0.6-4.5-1.7C147.2,39.2,146.7,37.7,146.7,35.6z M150.7,35.9
			c0,1.7,0.7,2.5,2.1,2.5c1.4,0,2.1-0.8,2.1-2.5V22.1c0-1.7-0.7-2.5-2.1-2.5c-1.4,0-2.1,0.8-2.1,2.5V35.9z"/>
		<path class="st3" d="M160.5,45.1v-7h1.6c0.3-0.4,0.6-0.9,0.7-1.4s0.2-1.1,0.3-1.9l0.7-18.6h11.4v21.9h1.7v7h-4v-3.4h-8.5v3.4
			H160.5z M166,38.1h5.3V19.9h-3.4l-0.7,14.9c0,0.9-0.2,1.6-0.3,2.1C166.6,37.4,166.3,37.8,166,38.1z"/>
		<path class="st3" d="M179.2,41.7V16.2h5.9c2,0,3.5,0.5,4.5,1.6c1,1.1,1.5,2.6,1.5,4.7v3.3c0,2.1-0.5,3.6-1.5,4.7
			c-1,1.1-2.5,1.6-4.5,1.6h-1.9v9.6H179.2z M183.2,28.5h1.9c0.7,0,1.2-0.2,1.5-0.6c0.3-0.4,0.5-1,0.5-1.9v-3.8
			c0-0.9-0.2-1.5-0.5-1.9c-0.3-0.4-0.8-0.5-1.5-0.5h-1.9V28.5z"/>
		<path class="st3" d="M192.6,35.6V22.4c0-2,0.5-3.6,1.6-4.7s2.6-1.7,4.5-1.7c2,0,3.5,0.6,4.5,1.7c1,1.1,1.6,2.7,1.6,4.7v13.3
			c0,2-0.5,3.6-1.6,4.7c-1,1.1-2.5,1.7-4.5,1.7c-2,0-3.5-0.6-4.5-1.7S192.6,37.7,192.6,35.6z M196.6,35.9c0,1.7,0.7,2.5,2.1,2.5
			c1.4,0,2.1-0.8,2.1-2.5V22.1c0-1.7-0.7-2.5-2.1-2.5c-1.4,0-2.1,0.8-2.1,2.5V35.9z"/>
		<path class="st3" d="M207.4,41.7V16.2h11.2v3.6h-7.2v6.5h2.3c2,0,3.5,0.5,4.5,1.6c1,1.1,1.5,2.6,1.5,4.7v2.7
			c0,2.1-0.5,3.6-1.5,4.7c-1,1.1-2.5,1.6-4.5,1.6H207.4z M211.4,38.1h2.3c0.7,0,1.2-0.2,1.5-0.6c0.3-0.4,0.5-1,0.5-1.9v-3.2
			c0-0.9-0.2-1.5-0.5-1.9c-0.3-0.4-0.9-0.6-1.5-0.6h-2.3V38.1z"/>
		<path class="st3" d="M222.5,41.7V16.2h4v10.9h4.6V16.2h4v25.5h-4V30.8h-4.6v10.9H222.5z"/>
		<path class="st3" d="M237.7,35.6V22.4c0-2,0.5-3.6,1.6-4.7s2.6-1.7,4.5-1.7c2,0,3.5,0.6,4.5,1.7c1,1.1,1.6,2.7,1.6,4.7v13.3
			c0,2-0.5,3.6-1.6,4.7c-1,1.1-2.5,1.7-4.5,1.7c-2,0-3.5-0.6-4.5-1.7S237.7,37.7,237.7,35.6z M241.7,35.9c0,1.7,0.7,2.5,2.1,2.5
			c1.4,0,2.1-0.8,2.1-2.5V22.1c0-1.7-0.7-2.5-2.1-2.5c-1.4,0-2.1,0.8-2.1,2.5V35.9z"/>
		<path class="st3" d="M252.1,35.6V22.4c0-2.1,0.5-3.6,1.5-4.7s2.5-1.7,4.5-1.7c2,0,3.5,0.6,4.6,1.7c1.1,1.1,1.6,2.7,1.6,4.7v2.5h-4
			v-2.7c0-1.7-0.7-2.5-2.1-2.5c-1.4,0-2.1,0.8-2.1,2.5v13.8c0,1.7,0.7,2.5,2.1,2.5c1.4,0,2.1-0.8,2.1-2.5v-3.6h4v3.4
			c0,2.1-0.5,3.6-1.6,4.7c-1.1,1.1-2.6,1.7-4.6,1.7c-2,0-3.5-0.6-4.5-1.7S252.1,37.7,252.1,35.6z"/>
		<path class="st3" d="M265.3,19.9v-3.6h12.4v3.6h-4.2v21.9h-4V19.9H265.3z"/>
		<path class="st3" d="M279.5,41.7V16.2h3.6v16.2l1.5-5.6l3.3-10.5h4.8v25.5h-4V23.8l-1.6,6.2l-3.4,11.7H279.5z"/>
	</g>
</g>
</svg>
