<?xml version="1.0" encoding="utf-8"?>
<!-- Generator: Adobe Illustrator 19.0.1, SVG Export Plug-In . SVG Version: 6.00 Build 0)  -->
<svg version="1.1" id="Слой_1" xmlns="http://www.w3.org/2000/svg" xmlns:xlink="http://www.w3.org/1999/xlink" x="0px" y="0px"
	 viewBox="98 -5 435 70" style="enable-background:new 98 -5 435 70;" xml:space="preserve">
<style type="text/css">
	.st0{enable-background:new    ;}
	.st1{fill:#58C1BF;}
	.st2{fill:none;stroke:#58C1BF;stroke-miterlimit:10;}
</style>
<g class="st0">
	<path class="st1" d="M123.8,38.2v-3.4h4.8v3.7c0,2,0.8,3.1,2.5,3.1c0.8,0,1.5-0.3,1.9-0.8c0.4-0.5,0.6-1.4,0.6-2.7v-2.4
		c0-1.4-0.2-2.4-0.7-3s-1.3-0.9-2.4-0.9h-1.2v-4.4h1.5c1,0,1.7-0.2,2.2-0.7c0.5-0.5,0.7-1.3,0.7-2.5v-1.7c0-1.3-0.2-2.2-0.6-2.8
		c-0.4-0.5-1-0.8-1.9-0.8c-1.7,0-2.5,1-2.5,3v2.5h-4.7v-2.3c0-2.5,0.6-4.4,1.9-5.7s3.1-2,5.4-2s4.1,0.7,5.4,2
		c1.2,1.3,1.8,3.2,1.8,5.7V23c0,3.3-1.1,5.4-3.4,6.3c2.2,1,3.4,3.1,3.4,6.5v2.4c0,2.5-0.6,4.4-1.8,5.7c-1.2,1.3-3,2-5.4,2
		s-4.2-0.7-5.5-2C124.5,42.6,123.8,40.7,123.8,38.2z"/>
	<path class="st1" d="M140.2,45.6l4.9-30.8h7.5l4.9,30.8h-4.8l-0.8-5.6h-5.9l-0.8,5.6H140.2z M146.5,35.8h4.7l-2.3-15.5L146.5,35.8z
		"/>
	<path class="st1" d="M159.4,45.6V14.8h4.8v13.4l6.3-13.4h4.8l-6.7,13.7l6.7,17.1h-5l-4.7-12.3l-1.5,2.8v9.5H159.4z"/>
	<path class="st1" d="M176.3,45.6l4.9-30.8h7.5l4.9,30.8h-4.8l-0.8-5.6H182l-0.8,5.6H176.3z M182.6,35.8h4.7l-2.3-15.5L182.6,35.8z"
		/>
	<path class="st1" d="M194.1,45.6l6-18.2l-6-12.6h4.7l5.7,12.5V14.8h4.8v12.5l5.7-12.5h4.7l-5.9,12.6l5.9,18.2H215L210.6,32
		l-1.2,2.3v11.3h-4.8V34.2l-1.2-2.4l-4.4,13.7H194.1z"/>
	<path class="st1" d="M222,45.6V14.8h4.3v19.5l1.8-6.8l4-12.7h5.8v30.8H233V23.9l-2,7.5L227,45.6H222z"/>
	<path class="st1" d="M247.2,38.2v-16c0-2.5,0.6-4.4,1.9-5.7c1.3-1.3,3.1-2,5.5-2s4.2,0.7,5.4,2c1.3,1.3,1.9,3.3,1.9,5.7v16
		c0,2.5-0.6,4.4-1.9,5.7c-1.3,1.3-3.1,2-5.4,2s-4.2-0.7-5.5-2C247.9,42.6,247.2,40.7,247.2,38.2z M252.1,38.5c0,2,0.8,3.1,2.5,3.1
		c1.7,0,2.5-1,2.5-3.1V21.9c0-2-0.8-3-2.5-3c-1.7,0-2.5,1-2.5,3V38.5z"/>
	<path class="st1" d="M265.1,45.6V14.8h13.6v4.4h-8.7v7.9h2.8c2.4,0,4.2,0.6,5.5,1.9c1.2,1.3,1.8,3.2,1.8,5.7V38
		c0,2.5-0.6,4.4-1.8,5.7c-1.2,1.3-3.1,1.9-5.5,1.9H265.1z M269.9,41.2h2.8c0.8,0,1.4-0.2,1.8-0.7c0.4-0.4,0.6-1.2,0.6-2.2v-3.9
		c0-1-0.2-1.8-0.6-2.2c-0.4-0.4-1-0.7-1.8-0.7h-2.8V41.2z"/>
	<path class="st1" d="M283.3,45.6V14.8h7.1c2.4,0,4.2,0.7,5.4,2c1.2,1.3,1.8,3.2,1.8,5.7v4c0,2.5-0.6,4.4-1.8,5.7
		c-1.2,1.3-3,1.9-5.4,1.9h-2.3v11.6H283.3z M288.1,29.6h2.3c0.8,0,1.4-0.2,1.8-0.7c0.4-0.4,0.6-1.2,0.6-2.3v-4.6
		c0-1.1-0.2-1.8-0.6-2.2c-0.4-0.4-1-0.7-1.8-0.7h-2.3V29.6z"/>
	<path class="st1" d="M298.6,45.6l4.9-30.8h7.5l4.9,30.8h-4.8l-0.8-5.6h-5.9l-0.8,5.6H298.6z M304.9,35.8h4.7l-2.3-15.5L304.9,35.8z
		"/>
	<path class="st1" d="M316.4,19.2v-4.4h15v4.4h-5.1v26.4h-4.8V19.2H316.4z"/>
	<path class="st1" d="M333.4,45.6V14.8h4.8V28h5.5V14.8h4.8v30.8h-4.8V32.4h-5.5v13.2H333.4z"/>
	<path class="st1" d="M352.2,45.6V14.8h4.8v11.6h2.3c2.4,0,4.2,0.6,5.4,1.9c1.2,1.3,1.8,3.2,1.8,5.7v4c0,2.5-0.6,4.4-1.8,5.7
		c-1.2,1.3-3,1.9-5.4,1.9H352.2z M357,41.2h2.3c0.8,0,1.4-0.2,1.8-0.7c0.4-0.4,0.6-1.2,0.6-2.2v-4.6c0-1.1-0.2-1.8-0.6-2.2
		c-0.4-0.4-1-0.7-1.8-0.7H357V41.2z M369.3,45.6V14.8h4.8v30.8H369.3z"/>
	<path class="st1" d="M377.7,14.8h4.3v19.5l1.8-6.8l3.9-12.7h5.3v30.8h-4.4l0.1-21.7l-2,7.6l-4.2,14.1h-5V14.8z M381.7,11.5
		c0.8,0.9,2.1,1.3,3.7,1.3c1.7,0,3-0.4,3.8-1.3c0.9-0.9,1.3-2.1,1.3-3.6h-2.9c-0.1,0.8-0.3,1.3-0.6,1.6c-0.4,0.3-0.9,0.4-1.6,0.4
		c-0.7,0-1.2-0.1-1.5-0.4c-0.3-0.3-0.5-0.8-0.6-1.6h-3C380.4,9.5,380.8,10.7,381.7,11.5z"/>
	<path class="st1" d="M403.1,38.2v-3.4h4.8v3.7c0,2,0.8,3.1,2.5,3.1c0.8,0,1.5-0.3,1.9-0.8c0.4-0.5,0.6-1.4,0.6-2.7v-2.4
		c0-1.4-0.2-2.4-0.7-3s-1.3-0.9-2.4-0.9h-1.2v-4.4h1.5c1,0,1.7-0.2,2.2-0.7c0.5-0.5,0.7-1.3,0.7-2.5v-1.7c0-1.3-0.2-2.2-0.6-2.8
		c-0.4-0.5-1-0.8-1.9-0.8c-1.7,0-2.5,1-2.5,3v2.5h-4.7v-2.3c0-2.5,0.6-4.4,1.9-5.7c1.3-1.3,3.1-2,5.4-2c2.4,0,4.1,0.7,5.4,2
		c1.2,1.3,1.8,3.2,1.8,5.7V23c0,3.3-1.1,5.4-3.4,6.3c2.2,1,3.4,3.1,3.4,6.5v2.4c0,2.5-0.6,4.4-1.8,5.7c-1.2,1.3-3,2-5.4,2
		c-2.4,0-4.2-0.7-5.5-2C403.7,42.6,403.1,40.7,403.1,38.2z"/>
	<path class="st1" d="M420.8,45.6V14.8h7.3c2.5,0,4.3,0.6,5.4,1.7c1.2,1.2,1.7,2.9,1.7,5.3V23c0,3.2-1,5.2-3.1,6.2
		c2.4,0.9,3.6,3.1,3.6,6.6v2.5c0,2.4-0.6,4.2-1.9,5.4s-3.1,1.9-5.5,1.9H420.8z M425.6,27.3h1.9c1,0,1.7-0.2,2.2-0.7
		c0.5-0.5,0.7-1.3,0.7-2.5v-1.7c0-1.1-0.2-1.9-0.6-2.4c-0.4-0.5-1-0.8-1.9-0.8h-2.4V27.3z M425.6,41.2h2.8c0.8,0,1.5-0.2,1.9-0.7
		c0.4-0.5,0.6-1.2,0.6-2.3v-2.7c0-1.4-0.2-2.4-0.7-2.9c-0.5-0.5-1.3-0.8-2.4-0.8h-2.2V41.2z"/>
	<path class="st1" d="M438.2,38.2v-16c0-2.5,0.6-4.4,1.9-5.7c1.3-1.3,3.1-2,5.5-2s4.2,0.7,5.4,2c1.3,1.3,1.9,3.3,1.9,5.7v16
		c0,2.5-0.6,4.4-1.9,5.7c-1.3,1.3-3.1,2-5.4,2s-4.2-0.7-5.5-2C438.9,42.6,438.2,40.7,438.2,38.2z M443.1,38.5c0,2,0.8,3.1,2.5,3.1
		c1.7,0,2.5-1,2.5-3.1V21.9c0-2-0.8-3-2.5-3c-1.7,0-2.5,1-2.5,3V38.5z"/>
	<path class="st1" d="M456,45.6V14.8h4.8V28h5.5V14.8h4.8v30.8h-4.8V32.4h-5.5v13.2H456z"/>
	<path class="st1" d="M474.4,38.2v-16c0-2.5,0.6-4.4,1.9-5.7c1.3-1.3,3.1-2,5.5-2s4.2,0.7,5.4,2c1.3,1.3,1.9,3.3,1.9,5.7v16
		c0,2.5-0.6,4.4-1.9,5.7c-1.3,1.3-3.1,2-5.4,2s-4.2-0.7-5.5-2C475.1,42.6,474.4,40.7,474.4,38.2z M479.3,38.5c0,2,0.8,3.1,2.5,3.1
		c1.7,0,2.5-1,2.5-3.1V21.9c0-2-0.8-3-2.5-3c-1.7,0-2.5,1-2.5,3V38.5z"/>
	<path class="st1" d="M492.3,45.6V14.8h4.8v13.4l6.3-13.4h4.8l-6.7,13.7l6.7,17.1h-5l-4.7-12.3l-1.5,2.8v9.5H492.3z"/>
</g>
<path class="st2" d="M515.5,61h-400c-6.6,0-12-5.4-12-12V11c0-6.6,5.4-12,12-12h400c6.6,0,12,5.4,12,12v38
	C527.5,55.6,522.1,61,515.5,61z"/>
</svg>
