<?xml version="1.0" encoding="utf-8"?>
<!-- Generator: Adobe Illustrator 19.0.1, SVG Export Plug-In . SVG Version: 6.00 Build 0)  -->
<svg version="1.1" id="Слой_1" xmlns="http://www.w3.org/2000/svg" xmlns:xlink="http://www.w3.org/1999/xlink" x="0px" y="0px"
	 viewBox="0 0 240 60" style="enable-background:new 0 0 240 60;" xml:space="preserve">
<style type="text/css">
	.st0{fill:#E5D900;}
	.st1{fill:#F9F51E;}
	.st2{enable-background:new    ;}
	.st3{fill:#1ABC9C;}
</style>
<path class="st0" d="M233.4,58.8H6.6c-2.8,0-5-2.3-5-5V10.2c0-2.8,2.3-5,5-5h226.8c2.8,0,5,2.3,5,5v43.6
	C238.4,56.6,236.1,58.8,233.4,58.8z"/>
<path class="st1" d="M233.4,54.8H6.6c-2.8,0-5-2.3-5-5V6.2c0-2.7,2.3-5,5-5h226.8c2.8,0,5,2.3,5,5v43.6
	C238.4,52.6,236.1,54.8,233.4,54.8z"/>
<g class="st2">
	<path class="st3" d="M17.1,35.6v-2.8h4v3.1c0,1.7,0.7,2.5,2.1,2.5c0.7,0,1.2-0.2,1.6-0.6c0.3-0.4,0.5-1.2,0.5-2.2v-2
		c0-1.2-0.2-2-0.6-2.5c-0.4-0.5-1.1-0.7-2-0.7h-1v-3.6h1.2c0.8,0,1.4-0.2,1.8-0.6c0.4-0.4,0.6-1.1,0.6-2.1v-1.4
		c0-1.1-0.2-1.9-0.5-2.3s-0.9-0.6-1.6-0.6c-1.4,0-2.1,0.8-2.1,2.5v2.1h-3.9v-1.9c0-2.1,0.5-3.6,1.6-4.7c1.1-1.1,2.6-1.6,4.5-1.6
		s3.4,0.6,4.5,1.7s1.5,2.7,1.5,4.7V23c0,2.7-0.9,4.5-2.8,5.2c1.9,0.8,2.8,2.6,2.8,5.4v2c0,2.1-0.5,3.6-1.5,4.7S25.2,42,23.2,42
		s-3.5-0.6-4.5-1.7S17.1,37.7,17.1,35.6z"/>
	<path class="st3" d="M30.7,41.7l4.1-25.5h6.2L45,41.7h-4l-0.7-4.6h-4.9l-0.7,4.6H30.7z M35.9,33.6h3.9l-1.9-12.8L35.9,33.6z"/>
	<path class="st3" d="M46.5,41.7V16.2h4v11.1l5.2-11.1h4l-5.6,11.4l5.6,14.1h-4.1l-3.9-10.2l-1.2,2.3v7.8H46.5z"/>
	<path class="st3" d="M60.6,41.7l4.1-25.5h6.2l4.1,25.5h-4l-0.7-4.6h-4.9l-0.7,4.6H60.6z M65.8,33.6h3.9l-1.9-12.8L65.8,33.6z"/>
	<path class="st3" d="M76.2,35.6v-2.8h4v3.1c0,1.7,0.7,2.5,2.1,2.5c0.7,0,1.2-0.2,1.6-0.6c0.3-0.4,0.5-1.2,0.5-2.2v-2
		c0-1.2-0.2-2-0.6-2.5c-0.4-0.5-1.1-0.7-2-0.7h-1v-3.6H82c0.8,0,1.4-0.2,1.8-0.6c0.4-0.4,0.6-1.1,0.6-2.1v-1.4
		c0-1.1-0.2-1.9-0.5-2.3s-0.9-0.6-1.6-0.6c-1.4,0-2.1,0.8-2.1,2.5v2.1h-3.9v-1.9c0-2.1,0.5-3.6,1.6-4.7c1.1-1.1,2.6-1.6,4.5-1.6
		s3.4,0.6,4.5,1.7s1.5,2.7,1.5,4.7V23c0,2.7-0.9,4.5-2.8,5.2c1.9,0.8,2.8,2.6,2.8,5.4v2c0,2.1-0.5,3.6-1.5,4.7S84.3,42,82.4,42
		s-3.5-0.6-4.5-1.7S76.2,37.7,76.2,35.6z"/>
	<path class="st3" d="M89.8,41.7l4.1-25.5h6.2l4.1,25.5h-4l-0.7-4.6h-4.9l-0.7,4.6H89.8z M95,33.6h3.9L97,20.8L95,33.6z"/>
	<path class="st3" d="M104.5,19.9v-3.6h12.4v3.6h-4.2v21.9h-4V19.9H104.5z"/>
	<path class="st3" d="M118.7,41.7V16.2h4v9.6h1.9c2,0,3.5,0.5,4.5,1.6c1,1.1,1.5,2.6,1.5,4.7v3.3c0,2.1-0.5,3.6-1.5,4.7
		c-1,1.1-2.5,1.6-4.5,1.6H118.7z M122.7,38.1h1.9c0.7,0,1.2-0.2,1.5-0.5c0.3-0.4,0.5-1,0.5-1.9v-3.8c0-0.9-0.2-1.5-0.5-1.9
		c-0.3-0.4-0.8-0.5-1.5-0.5h-1.9V38.1z"/>
	<path class="st3" d="M138.2,35.6V22.4c0-2.1,0.5-3.6,1.5-4.7s2.5-1.7,4.5-1.7c2,0,3.5,0.6,4.6,1.7c1.1,1.1,1.6,2.7,1.6,4.7v2.5h-4
		v-2.7c0-1.7-0.7-2.5-2.1-2.5c-1.4,0-2.1,0.8-2.1,2.5v13.8c0,1.7,0.7,2.5,2.1,2.5c1.4,0,2.1-0.8,2.1-2.5v-3.6h4v3.4
		c0,2.1-0.5,3.6-1.6,4.7c-1.1,1.1-2.6,1.7-4.6,1.7c-2,0-3.5-0.6-4.5-1.7S138.2,37.7,138.2,35.6z"/>
	<path class="st3" d="M152.6,41.7V16.2h10.9v3.6h-6.9V27h5.5v3.6h-5.5v7.5h6.9v3.6H152.6z"/>
	<path class="st3" d="M166,16.3h3.6v16.1l1.5-5.6l3.3-10.5h4.4v25.5h-3.6l0.1-17.9l-1.6,6.3l-3.5,11.7H166V16.3z M169.3,13.5
		c0.7,0.7,1.7,1.1,3.1,1.1c1.4,0,2.5-0.4,3.2-1.1c0.7-0.7,1.1-1.7,1.1-3h-2.4c0,0.6-0.2,1.1-0.5,1.3c-0.3,0.2-0.7,0.4-1.3,0.4
		c-0.6,0-1-0.1-1.2-0.4s-0.4-0.7-0.5-1.3h-2.5C168.3,11.8,168.6,12.8,169.3,13.5z"/>
	<path class="st3" d="M181.4,27V16.2h4v10.5c0,0.8,0.2,1.4,0.7,1.9c0.4,0.4,1,0.6,1.7,0.6c0.7,0,1.2-0.2,1.5-0.7
		c0.4-0.5,0.6-1.1,0.6-1.9V16.2h4v25.5h-4V31.5c-0.4,0.5-0.9,0.8-1.6,1s-1.3,0.4-1.8,0.4c-1.6,0-2.8-0.5-3.7-1.6
		C181.8,30.2,181.4,28.8,181.4,27z"/>
	<path class="st3" d="M195.7,41.7l4.1-25.5h6.2l4.1,25.5h-4l-0.7-4.6h-4.9l-0.7,4.6H195.7z M200.9,33.6h3.9l-1.9-12.8L200.9,33.6z"
		/>
	<path class="st3" d="M211.2,35.6V22.4c0-2.1,0.5-3.6,1.5-4.7s2.5-1.7,4.5-1.7c2,0,3.5,0.6,4.6,1.7c1.1,1.1,1.6,2.7,1.6,4.7v2.5h-4
		v-2.7c0-1.7-0.7-2.5-2.1-2.5c-1.4,0-2.1,0.8-2.1,2.5v13.8c0,1.7,0.7,2.5,2.1,2.5c1.4,0,2.1-0.8,2.1-2.5v-3.6h4v3.4
		c0,2.1-0.5,3.6-1.6,4.7c-1.1,1.1-2.6,1.7-4.6,1.7c-2,0-3.5-0.6-4.5-1.7S211.2,37.7,211.2,35.6z"/>
</g>
</svg>
